<svg xmlns="http://www.w3.org/2000/svg" xmlns:xlink="http://www.w3.org/1999/xlink" width="500" zoomAndPan="magnify" viewBox="0 0 375 374.999991" height="500" preserveAspectRatio="xMidYMid meet" version="1.0"><defs><clipPath id="072945038e"><path d="M 85.558594 250 L 131 250 L 131 344 L 85.558594 344 Z M 85.558594 250 " clip-rule="nonzero"/></clipPath><clipPath id="98766d34d9"><path d="M 120 61 L 289.558594 61 L 289.558594 347.960938 L 120 347.960938 Z M 120 61 " clip-rule="nonzero"/></clipPath></defs><path fill="#0097b2" d="M 278.101562 220.933594 L 278.140625 220.648438 L 278.21875 220.074219 C 278.246094 219.878906 278.273438 219.691406 278.296875 219.496094 L 278.34375 218.921875 L 278.394531 218.347656 C 278.410156 218.15625 278.429688 217.964844 278.429688 217.773438 L 278.464844 216.625 C 278.46875 216.53125 278.472656 216.433594 278.472656 216.335938 L 278.46875 216.054688 L 278.457031 215.484375 C 278.445312 215.101562 278.445312 214.722656 278.414062 214.347656 L 278.335938 213.214844 C 278.324219 213.027344 278.296875 212.84375 278.273438 212.65625 L 278.210938 212.097656 C 278.136719 211.347656 278 210.617188 277.878906 209.882812 L 277.832031 209.609375 L 277.773438 209.335938 L 277.660156 208.792969 C 277.582031 208.429688 277.511719 208.066406 277.425781 207.707031 L 277.152344 206.640625 L 277.015625 206.109375 C 276.96875 205.933594 276.914062 205.757812 276.863281 205.582031 C 276.652344 204.882812 276.453125 204.179688 276.210938 203.496094 L 275.859375 202.46875 C 275.738281 202.128906 275.605469 201.792969 275.476562 201.457031 C 274.453125 198.761719 273.242188 196.175781 271.921875 193.683594 L 271.421875 192.75 L 271.296875 192.519531 L 271.167969 192.289062 L 270.910156 191.832031 L 270.125 190.460938 L 269.855469 190.011719 C 269.492188 189.414062 269.132812 188.8125 268.769531 188.21875 C 268.394531 187.632812 268.019531 187.046875 267.644531 186.460938 C 266.121094 184.136719 264.53125 181.875 262.882812 179.671875 C 262.472656 179.121094 262.050781 178.582031 261.632812 178.035156 L 261.007812 177.21875 L 260.371094 176.417969 C 259.941406 175.882812 259.515625 175.351562 259.089844 174.816406 C 258.65625 174.289062 258.21875 173.765625 257.789062 173.242188 L 257.136719 172.457031 L 256.472656 171.679688 C 256.03125 171.164062 255.589844 170.648438 255.148438 170.136719 C 254.703125 169.621094 254.25 169.121094 253.804688 168.613281 L 253.132812 167.851562 L 252.792969 167.472656 L 252.453125 167.097656 C 250.394531 164.824219 248.296875 162.601562 246.171875 160.421875 C 245.261719 162.195312 244.335938 163.976562 243.398438 165.773438 C 243.976562 166.394531 244.554688 167.019531 245.128906 167.648438 L 245.875 168.472656 L 246.25 168.882812 L 246.617188 169.300781 C 247.113281 169.855469 247.605469 170.410156 248.097656 170.964844 L 248.464844 171.382812 L 248.828125 171.804688 L 249.558594 172.648438 C 250.039062 173.214844 250.53125 173.769531 251.003906 174.34375 C 254.824219 178.902344 258.484375 183.625 261.738281 188.605469 C 263.367188 191.089844 264.898438 193.640625 266.273438 196.253906 C 267.648438 198.867188 268.867188 201.546875 269.851562 204.285156 C 269.921875 204.457031 269.972656 204.628906 270.03125 204.800781 L 270.460938 206.089844 L 270.539062 206.351562 C 270.734375 207.039062 270.953125 207.730469 271.113281 208.429688 L 271.242188 208.953125 C 271.285156 209.125 271.332031 209.300781 271.363281 209.472656 L 271.578125 210.523438 L 271.628906 210.78125 L 271.671875 211.042969 L 271.839844 212.09375 L 271.859375 212.226562 L 271.875 212.355469 L 271.90625 212.621094 L 272.023438 213.667969 L 272.089844 214.714844 L 272.105469 214.972656 C 272.109375 215.0625 272.109375 215.148438 272.113281 215.234375 L 272.121094 215.753906 L 272.128906 216.277344 C 272.125 216.449219 272.117188 216.621094 272.113281 216.792969 L 272.09375 217.3125 L 272.085938 217.570312 C 272.082031 217.65625 272.070312 217.738281 272.0625 217.828125 L 271.972656 218.851562 L 271.828125 219.863281 C 271.808594 220.035156 271.769531 220.199219 271.738281 220.367188 L 271.636719 220.867188 C 271.070312 223.523438 270.011719 226.046875 268.460938 228.3125 C 267.6875 229.445312 266.800781 230.523438 265.832031 231.535156 C 265.585938 231.789062 265.347656 232.046875 265.085938 232.285156 L 264.699219 232.648438 C 264.570312 232.769531 264.445312 232.898438 264.308594 233.007812 L 263.503906 233.710938 L 262.664062 234.390625 C 261.527344 235.273438 260.324219 236.101562 259.078125 236.875 L 258.132812 237.445312 C 257.808594 237.628906 257.488281 237.808594 257.164062 237.988281 C 256.84375 238.175781 256.511719 238.34375 256.183594 238.515625 C 255.851562 238.691406 255.523438 238.867188 255.1875 239.027344 C 253.855469 239.699219 252.472656 240.304688 251.074219 240.886719 C 249.679688 241.46875 248.242188 241.988281 246.800781 242.488281 C 244.285156 243.347656 241.726562 244.097656 239.136719 244.757812 C 236.550781 245.414062 233.933594 245.988281 231.304688 246.488281 C 226.042969 247.496094 220.726562 248.226562 215.40625 248.773438 C 207.140625 249.621094 198.867188 250.039062 190.636719 250.175781 C 189.050781 252.1875 187.460938 254.15625 185.863281 256.082031 C 186.574219 256.089844 187.289062 256.097656 188 256.101562 C 191.042969 256.113281 194.09375 256.085938 197.15625 256.011719 C 200.21875 255.945312 203.292969 255.828125 206.375 255.65625 C 209.457031 255.488281 212.542969 255.265625 215.640625 254.976562 C 218.738281 254.6875 221.84375 254.339844 224.953125 253.90625 C 228.058594 253.472656 231.171875 252.96875 234.28125 252.34375 L 235.445312 252.113281 L 236.613281 251.863281 L 237.195312 251.742188 L 238.941406 251.34375 L 240.105469 251.058594 L 240.6875 250.921875 L 241.269531 250.769531 L 242.429688 250.46875 L 243.589844 250.152344 L 244.171875 249.992188 L 244.75 249.820312 L 245.90625 249.480469 L 247.0625 249.121094 C 247.253906 249.058594 247.449219 249 247.640625 248.9375 L 248.214844 248.746094 C 249.753906 248.242188 251.28125 247.683594 252.800781 247.082031 C 255.835938 245.878906 258.835938 244.472656 261.722656 242.761719 C 262.082031 242.539062 262.445312 242.332031 262.800781 242.105469 L 263.863281 241.417969 C 264.5625 240.941406 265.265625 240.464844 265.945312 239.941406 C 267.308594 238.914062 268.625 237.796875 269.867188 236.574219 C 271.101562 235.34375 272.253906 234 273.292969 232.554688 C 274.328125 231.109375 275.238281 229.550781 275.992188 227.914062 C 276.148438 227.554688 276.308594 227.199219 276.457031 226.839844 L 276.871094 225.742188 C 276.90625 225.648438 276.941406 225.558594 276.972656 225.464844 L 277.0625 225.1875 L 277.238281 224.628906 L 277.410156 224.070312 L 277.558594 223.5 L 277.699219 222.933594 C 277.746094 222.746094 277.796875 222.558594 277.832031 222.367188 L 278.054688 221.222656 C 278.070312 221.128906 278.089844 221.03125 278.101562 220.933594 " fill-opacity="1" fill-rule="nonzero"/><path fill="#0097b2" d="M 217.59375 139.8125 C 218.617188 138.457031 219.648438 137.121094 220.679688 135.8125 C 220.550781 135.679688 220.417969 135.546875 220.285156 135.417969 C 219.335938 136.523438 218.273438 137.8125 217.101562 139.292969 C 217.113281 139.308594 217.128906 139.324219 217.148438 139.34375 L 217.59375 139.8125 " fill-opacity="1" fill-rule="nonzero"/><path fill="#0097b2" d="M 192.09375 97.746094 C 189.738281 93.445312 187.617188 89.058594 185.851562 84.578125 C 184.96875 82.335938 184.179688 80.074219 183.5 77.789062 C 182.824219 75.507812 182.253906 73.203125 181.835938 70.886719 C 180.996094 66.253906 180.738281 61.558594 181.320312 56.992188 C 181.617188 54.710938 182.136719 52.46875 182.875 50.3125 C 183.613281 48.152344 184.574219 46.078125 185.742188 44.128906 C 186.90625 42.175781 188.28125 40.351562 189.808594 38.667969 C 191.332031 36.980469 193.015625 35.441406 194.796875 34.035156 C 196.578125 32.625 198.460938 31.351562 200.402344 30.183594 C 200.890625 29.902344 201.382812 29.617188 201.871094 29.332031 C 202.367188 29.0625 202.867188 28.792969 203.363281 28.527344 C 203.859375 28.253906 204.371094 28.011719 204.875 27.761719 C 205.382812 27.511719 205.882812 27.25 206.398438 27.023438 C 204.101562 27.953125 201.828125 29 199.617188 30.199219 C 197.40625 31.394531 195.261719 32.757812 193.234375 34.304688 C 192.730469 34.691406 192.234375 35.097656 191.730469 35.496094 C 191.25 35.914062 190.765625 36.339844 190.28125 36.765625 C 190.050781 36.984375 189.816406 37.207031 189.585938 37.429688 L 189.238281 37.765625 C 189.121094 37.878906 189 37.988281 188.894531 38.105469 C 188.667969 38.34375 188.449219 38.574219 188.226562 38.8125 L 187.890625 39.164062 C 187.777344 39.277344 187.675781 39.40625 187.570312 39.527344 C 185.847656 41.46875 184.320312 43.609375 183.050781 45.921875 C 181.789062 48.238281 180.804688 50.726562 180.089844 53.308594 C 180.042969 53.46875 180.003906 53.632812 179.964844 53.792969 L 179.84375 54.28125 L 179.726562 54.769531 L 179.667969 55.015625 L 179.617188 55.261719 C 179.488281 55.921875 179.34375 56.578125 179.25 57.246094 C 179.199219 57.578125 179.148438 57.914062 179.097656 58.246094 C 179.0625 58.582031 179.023438 58.917969 178.984375 59.25 L 178.925781 59.753906 C 178.910156 59.921875 178.902344 60.089844 178.886719 60.261719 C 178.863281 60.597656 178.835938 60.933594 178.8125 61.273438 C 178.652344 63.976562 178.753906 66.707031 179.039062 69.421875 C 179.070312 69.765625 179.121094 70.097656 179.160156 70.441406 C 179.207031 70.78125 179.25 71.117188 179.292969 71.457031 C 179.347656 71.796875 179.402344 72.136719 179.453125 72.472656 C 179.507812 72.808594 179.558594 73.152344 179.625 73.488281 C 179.75 74.160156 179.867188 74.839844 180.019531 75.507812 C 180.089844 75.84375 180.160156 76.179688 180.234375 76.515625 C 180.3125 76.851562 180.394531 77.183594 180.472656 77.519531 C 181.757812 82.878906 183.660156 88.117188 185.910156 93.230469 C 187.078125 95.878906 188.34375 98.488281 189.695312 101.070312 C 190.566406 100.082031 191.4375 99.101562 192.3125 98.136719 C 192.242188 98.003906 192.167969 97.875 192.09375 97.746094 " fill-opacity="1" fill-rule="nonzero"/><path fill="#0097b2" d="M 236.511719 150.929688 C 236.320312 150.746094 236.128906 150.566406 235.9375 150.386719 C 234.914062 151.355469 234.359375 151.820312 234.359375 151.820312 C 235.0625 151.566406 235.777344 151.261719 236.511719 150.929688 " fill-opacity="1" fill-rule="nonzero"/><g clip-path="url(#072945038e)"><path fill="#0097b2" d="M 130.214844 250.460938 C 129.566406 250.554688 128.917969 250.664062 128.269531 250.761719 C 125.683594 251.183594 123.113281 251.679688 120.5625 252.277344 C 118.015625 252.871094 115.488281 253.566406 113 254.390625 C 112.378906 254.589844 111.761719 254.816406 111.144531 255.035156 L 110.679688 255.199219 L 110.21875 255.375 L 109.304688 255.726562 C 108.996094 255.84375 108.695312 255.976562 108.390625 256.101562 L 107.480469 256.480469 L 106.582031 256.882812 C 106.28125 257.015625 105.980469 257.148438 105.6875 257.296875 L 104.796875 257.726562 C 104.5 257.867188 104.210938 258.027344 103.917969 258.175781 L 103.480469 258.402344 L 103.261719 258.519531 L 103.046875 258.640625 L 102.179688 259.121094 C 101.039062 259.785156 99.914062 260.480469 98.832031 261.246094 L 98.425781 261.53125 C 98.289062 261.628906 98.15625 261.730469 98.023438 261.828125 C 97.761719 262.027344 97.492188 262.226562 97.230469 262.429688 L 96.453125 263.054688 L 96.261719 263.214844 L 96.074219 263.375 L 95.695312 263.703125 C 94.695312 264.582031 93.734375 265.511719 92.851562 266.515625 C 91.964844 267.515625 91.140625 268.570312 90.390625 269.679688 C 89.644531 270.789062 88.988281 271.957031 88.414062 273.160156 C 87.265625 275.566406 86.480469 278.128906 86.066406 280.710938 C 85.648438 283.292969 85.558594 285.894531 85.734375 288.441406 C 85.914062 290.988281 86.324219 293.488281 86.914062 295.914062 C 88.089844 300.769531 89.90625 305.355469 92.019531 309.707031 C 94.136719 314.0625 96.570312 318.1875 99.171875 322.140625 C 101.773438 326.09375 104.554688 329.863281 107.453125 333.484375 C 110.355469 337.101562 113.363281 340.578125 116.5 343.875 C 113.246094 340.066406 110.152344 336.070312 107.195312 331.90625 C 104.238281 327.746094 101.433594 323.410156 98.871094 318.886719 C 96.316406 314.359375 93.996094 309.640625 92.15625 304.699219 C 91.246094 302.230469 90.445312 299.707031 89.839844 297.136719 C 89.230469 294.566406 88.804688 291.949219 88.652344 289.316406 C 88.5 286.6875 88.621094 284.042969 89.117188 281.476562 C 89.609375 278.90625 90.484375 276.421875 91.742188 274.140625 C 93 271.855469 94.644531 269.789062 96.558594 267.976562 C 97.515625 267.070312 98.542969 266.222656 99.613281 265.4375 C 100.695312 264.652344 101.824219 263.929688 102.992188 263.257812 L 103.871094 262.761719 C 104.171875 262.601562 104.472656 262.449219 104.773438 262.292969 C 104.921875 262.214844 105.070312 262.136719 105.222656 262.0625 L 105.683594 261.839844 L 106.140625 261.617188 C 106.292969 261.542969 106.445312 261.472656 106.601562 261.402344 L 107.535156 260.988281 C 107.691406 260.914062 107.847656 260.851562 108.003906 260.785156 L 108.480469 260.589844 C 109.105469 260.320312 109.75 260.085938 110.390625 259.839844 C 112.964844 258.882812 115.628906 258.101562 118.335938 257.4375 C 121.042969 256.773438 123.804688 256.238281 126.59375 255.804688 C 127.828125 255.613281 129.070312 255.4375 130.3125 255.285156 C 130.308594 253.6875 130.324219 252.070312 130.367188 250.441406 C 130.316406 250.449219 130.265625 250.457031 130.214844 250.460938 " fill-opacity="1" fill-rule="nonzero"/></g><path fill="#0097b2" d="M 158.050781 249.359375 C 157.335938 251.078125 156.621094 252.820312 155.902344 254.585938 C 156.480469 254.636719 157.054688 254.6875 157.632812 254.734375 C 158.328125 252.980469 159.027344 251.222656 159.738281 249.46875 C 159.175781 249.433594 158.613281 249.398438 158.050781 249.359375 " fill-opacity="1" fill-rule="nonzero"/><g clip-path="url(#98766d34d9)"><path fill="#0097b2" d="M 130.546875 335.835938 C 130.148438 336.523438 129.335938 336.890625 128.554688 336.730469 C 127.269531 336.472656 126.628906 335.050781 127.285156 333.914062 C 127.683594 333.226562 128.5 332.859375 129.28125 333.015625 C 130.566406 333.277344 131.207031 334.699219 130.546875 335.835938 Z M 203.667969 225.949219 C 200.53125 227.988281 197.222656 229.984375 194.011719 231.621094 C 193.203125 232.027344 192.417969 232.417969 191.636719 232.78125 C 190.859375 233.144531 190.085938 233.480469 189.332031 233.78125 C 187.824219 234.382812 186.375 234.851562 185.019531 235.152344 C 185.019531 235.152344 185.796875 234.625 187.230469 233.492188 C 187.949219 232.921875 188.828125 232.203125 189.859375 231.316406 C 190.375 230.875 190.929688 230.394531 191.527344 229.878906 C 192.125 229.359375 192.753906 228.796875 193.417969 228.191406 C 194.75 226.984375 196.214844 225.605469 197.800781 224.046875 C 199.398438 222.496094 201.132812 220.777344 202.964844 218.863281 C 204.785156 216.945312 206.769531 214.875 208.824219 212.601562 C 210.871094 210.316406 213.070312 207.882812 215.332031 205.238281 C 220.316406 199.46875 224.671875 193.179688 228.4375 186.59375 C 228.867188 185.832031 229.292969 185.070312 229.722656 184.304688 C 230.15625 183.542969 230.589844 182.78125 231.019531 182.015625 C 231.445312 181.246094 231.871094 180.480469 232.296875 179.703125 C 232.507812 179.316406 232.71875 178.929688 232.929688 178.542969 C 233.140625 178.15625 233.355469 177.773438 233.570312 177.386719 C 236.035156 172.871094 238.410156 168.421875 240.699219 164.039062 C 241.542969 162.425781 242.375 160.820312 243.195312 159.230469 C 243.527344 158.582031 243.855469 157.9375 244.183594 157.296875 C 247.519531 150.765625 250.652344 144.414062 253.609375 138.28125 C 252.78125 138.90625 251.929688 139.535156 251.058594 140.167969 C 250.839844 140.324219 250.621094 140.480469 250.402344 140.640625 C 250.179688 140.796875 249.964844 140.960938 249.742188 141.125 C 249.304688 141.449219 248.863281 141.769531 248.414062 142.089844 C 247.523438 142.734375 246.613281 143.363281 245.703125 143.988281 C 244.800781 144.625 243.890625 145.246094 242.984375 145.84375 C 242.527344 146.140625 242.070312 146.433594 241.617188 146.71875 C 241.390625 146.863281 241.164062 147.003906 240.9375 147.144531 C 240.710938 147.285156 240.488281 147.425781 240.265625 147.566406 C 239.371094 148.121094 238.484375 148.644531 237.605469 149.128906 C 236.730469 149.613281 235.863281 150.050781 235.019531 150.445312 C 234.847656 150.527344 234.675781 150.609375 234.503906 150.6875 C 233.84375 150.988281 233.199219 151.257812 232.566406 151.492188 C 232.566406 151.492188 233.066406 151.070312 233.988281 150.199219 C 233.992188 150.195312 233.996094 150.1875 234.003906 150.183594 C 234.117188 150.074219 234.242188 149.957031 234.371094 149.832031 C 234.5 149.710938 234.640625 149.582031 234.785156 149.441406 C 235.074219 149.171875 235.386719 148.867188 235.726562 148.535156 C 236.402344 147.875 237.179688 147.09375 238.042969 146.195312 C 238.257812 145.972656 238.476562 145.734375 238.707031 145.5 C 238.933594 145.265625 239.171875 145.023438 239.414062 144.773438 C 239.894531 144.269531 240.398438 143.738281 240.917969 143.175781 C 241.445312 142.617188 241.980469 142.019531 242.546875 141.402344 C 243.117188 140.792969 243.707031 140.148438 244.3125 139.476562 C 244.613281 139.140625 244.921875 138.792969 245.234375 138.441406 C 245.546875 138.089844 245.859375 137.726562 246.1875 137.367188 C 246.839844 136.644531 247.503906 135.894531 248.1875 135.109375 C 248.527344 134.71875 248.871094 134.316406 249.222656 133.90625 C 249.574219 133.507812 249.933594 133.097656 250.300781 132.6875 C 250.660156 132.269531 251.023438 131.847656 251.398438 131.417969 C 251.582031 131.203125 251.765625 130.980469 251.953125 130.761719 C 252.140625 130.542969 252.328125 130.320312 252.519531 130.101562 C 256.34375 125.648438 259.75 121.027344 262.746094 116.308594 C 263.121094 115.71875 263.492188 115.128906 263.851562 114.527344 L 264.117188 114.078125 L 264.390625 113.632812 C 264.566406 113.339844 264.746094 113.042969 264.921875 112.742188 C 265.273438 112.148438 265.613281 111.542969 265.949219 110.9375 C 266.292969 110.34375 266.625 109.746094 266.953125 109.140625 C 267.273438 108.535156 267.59375 107.929688 267.914062 107.324219 C 268.230469 106.722656 268.539062 106.113281 268.84375 105.492188 C 268.992188 105.179688 269.144531 104.886719 269.296875 104.582031 C 269.445312 104.28125 269.59375 103.972656 269.742188 103.664062 C 270.03125 103.050781 270.320312 102.433594 270.609375 101.820312 C 272.128906 98.507812 273.613281 95.300781 275.078125 92.214844 C 276.546875 89.121094 277.992188 86.148438 279.460938 83.273438 C 279.828125 82.542969 280.199219 81.851562 280.570312 81.136719 C 280.753906 80.773438 280.941406 80.441406 281.128906 80.089844 C 281.226562 79.914062 281.316406 79.738281 281.410156 79.566406 C 281.507812 79.390625 281.601562 79.210938 281.695312 79.042969 C 281.886719 78.699219 282.074219 78.359375 282.265625 78.015625 L 282.410156 77.757812 L 282.554688 77.503906 C 282.648438 77.335938 282.746094 77.167969 282.84375 77 C 282.9375 76.832031 283.039062 76.660156 283.132812 76.488281 C 283.230469 76.316406 283.328125 76.160156 283.425781 75.992188 C 283.625 75.65625 283.824219 75.324219 284.019531 74.992188 C 284.222656 74.664062 284.421875 74.335938 284.625 74.011719 C 284.828125 73.6875 285.03125 73.371094 285.238281 73.046875 L 285.394531 72.800781 L 285.550781 72.566406 C 285.65625 72.410156 285.761719 72.25 285.867188 72.09375 C 286.074219 71.769531 286.304688 71.464844 286.527344 71.148438 C 286.640625 70.988281 286.753906 70.835938 286.871094 70.683594 C 286.988281 70.53125 287.105469 70.375 287.21875 70.222656 C 287.339844 70.066406 287.457031 69.921875 287.578125 69.769531 C 287.695312 69.617188 287.816406 69.464844 287.9375 69.320312 C 288.425781 68.726562 288.929688 68.148438 289.449219 67.628906 C 288.984375 67.226562 288.5 66.867188 287.996094 66.523438 C 287.742188 66.347656 287.484375 66.1875 287.21875 66.023438 C 286.957031 65.863281 286.6875 65.707031 286.414062 65.554688 C 285.324219 64.953125 284.15625 64.421875 282.894531 63.972656 C 280.382812 63.078125 277.609375 62.488281 274.679688 62.183594 C 272.734375 61.972656 270.769531 61.945312 268.757812 62.035156 C 268.257812 62.0625 267.761719 62.101562 267.257812 62.144531 L 266.503906 62.214844 C 266.25 62.238281 265.996094 62.269531 265.75 62.300781 C 265.25 62.363281 264.75 62.4375 264.242188 62.515625 L 263.484375 62.636719 C 263.230469 62.675781 262.984375 62.726562 262.734375 62.773438 C 258.714844 63.542969 254.726562 64.84375 250.902344 66.582031 C 250.425781 66.800781 249.949219 67.023438 249.476562 67.253906 C 249.003906 67.484375 248.523438 67.714844 248.066406 67.964844 C 247.136719 68.457031 246.214844 68.964844 245.296875 69.5 C 244.398438 70.042969 243.5 70.605469 242.609375 71.1875 C 242.164062 71.472656 241.734375 71.777344 241.304688 72.078125 C 240.875 72.386719 240.441406 72.695312 240.015625 73.007812 L 239.375 73.480469 C 239.160156 73.640625 238.949219 73.800781 238.742188 73.964844 C 238.328125 74.289062 237.917969 74.621094 237.507812 74.957031 C 236.691406 75.628906 235.867188 76.3125 235.097656 77.027344 C 234.316406 77.738281 233.546875 78.464844 232.789062 79.203125 C 232.046875 79.953125 231.320312 80.71875 230.601562 81.496094 C 226.613281 85.859375 223.480469 89.921875 220.941406 93.5 C 220.316406 94.398438 219.730469 95.269531 219.171875 96.109375 C 218.894531 96.527344 218.625 96.9375 218.359375 97.335938 C 218.230469 97.539062 218.101562 97.738281 217.972656 97.933594 C 217.847656 98.132812 217.726562 98.328125 217.605469 98.523438 C 216.648438 100.074219 215.800781 101.488281 215.078125 102.761719 C 214.371094 104.042969 213.769531 105.175781 213.265625 106.160156 C 213.015625 106.648438 212.785156 107.101562 212.582031 107.515625 C 212.382812 107.933594 212.207031 108.308594 212.054688 108.644531 C 211.441406 109.992188 211.167969 110.695312 211.167969 110.695312 C 211.226562 109.570312 211.371094 108.363281 211.582031 107.09375 C 211.804688 105.824219 212.121094 104.5 212.484375 103.125 C 212.667969 102.4375 212.867188 101.738281 213.078125 101.03125 C 213.300781 100.324219 213.539062 99.613281 213.789062 98.890625 C 214.039062 98.171875 214.300781 97.445312 214.574219 96.710938 C 214.714844 96.34375 214.851562 95.976562 214.992188 95.609375 C 215.140625 95.242188 215.292969 94.878906 215.445312 94.507812 C 215.75 93.773438 216.066406 93.035156 216.390625 92.296875 C 216.550781 91.929688 216.714844 91.5625 216.878906 91.191406 L 217.128906 90.640625 L 217.390625 90.089844 C 218.09375 88.628906 218.8125 87.171875 219.550781 85.75 C 220.316406 84.335938 221.082031 82.945312 221.84375 81.597656 C 222.636719 80.265625 223.421875 78.976562 224.179688 77.753906 C 218.4375 81.511719 212.824219 85.835938 207.421875 90.636719 C 206.753906 91.242188 206.085938 91.847656 205.414062 92.460938 C 205.082031 92.773438 204.742188 93.078125 204.40625 93.390625 C 204.070312 93.699219 203.734375 94.011719 203.410156 94.328125 C 202.101562 95.589844 200.785156 96.875 199.480469 98.1875 C 198.199219 99.507812 196.917969 100.847656 195.640625 102.210938 C 195.335938 102.539062 195.039062 102.867188 194.742188 103.195312 C 193.953125 104.066406 193.171875 104.945312 192.386719 105.835938 C 192.222656 106.023438 192.058594 106.207031 191.894531 106.394531 C 186.964844 112.070312 182.289062 118.140625 177.898438 124.539062 C 176.8125 126.136719 175.730469 127.757812 174.660156 129.394531 C 173.617188 131.035156 172.578125 132.695312 171.550781 134.371094 C 171.292969 134.789062 171.035156 135.210938 170.78125 135.632812 C 170.527344 136.050781 170.28125 136.476562 170.03125 136.902344 C 169.535156 137.75 169.042969 138.601562 168.550781 139.457031 C 168.058594 140.3125 167.570312 141.175781 167.085938 142.039062 C 166.839844 142.46875 166.605469 142.90625 166.371094 143.339844 C 166.136719 143.777344 165.898438 144.214844 165.664062 144.648438 C 165.152344 145.605469 164.644531 146.566406 164.140625 147.527344 C 163.640625 148.484375 163.132812 149.441406 162.660156 150.402344 C 161.707031 152.328125 160.773438 154.25 159.863281 156.167969 C 159.398438 157.125 158.972656 158.085938 158.539062 159.046875 C 158.109375 160.007812 157.683594 160.964844 157.265625 161.925781 C 156.84375 162.882812 156.429688 163.839844 156.019531 164.792969 C 155.621094 165.75 155.234375 166.710938 154.847656 167.664062 C 154.082031 169.578125 153.328125 171.480469 152.609375 173.382812 C 151.90625 175.285156 151.226562 177.183594 150.570312 179.074219 C 150.242188 180.019531 149.917969 180.960938 149.605469 181.902344 C 149.296875 182.84375 149 183.785156 148.703125 184.726562 C 148.113281 186.601562 147.546875 188.46875 147 190.328125 C 146.777344 191.070312 146.585938 191.816406 146.394531 192.5625 C 146.203125 193.304688 146.019531 194.050781 145.847656 194.796875 C 145.5 196.289062 145.191406 197.785156 144.917969 199.277344 C 144.640625 200.773438 144.433594 202.273438 144.246094 203.765625 C 144.0625 205.261719 143.921875 206.753906 143.8125 208.238281 C 143.734375 209.382812 143.65625 210.488281 143.609375 211.5625 C 143.558594 212.632812 143.523438 213.667969 143.492188 214.667969 C 143.4375 216.667969 143.417969 218.527344 143.425781 220.238281 C 143.425781 221.949219 143.480469 223.523438 143.546875 224.949219 C 143.613281 226.378906 143.699219 227.664062 143.789062 228.804688 C 143.96875 231.089844 144.175781 232.800781 144.34375 233.941406 C 144.515625 235.089844 144.636719 235.660156 144.636719 235.660156 C 144.179688 234.976562 143.742188 234.222656 143.320312 233.410156 C 142.90625 232.59375 142.507812 231.722656 142.128906 230.804688 C 141.375 228.960938 140.691406 226.925781 140.078125 224.777344 C 139.484375 230.082031 139.136719 235.234375 139.015625 240.210938 C 138.980469 241.675781 138.964844 243.128906 138.96875 244.5625 C 139.007812 256.914062 140.507812 268.0625 143.292969 277.578125 L 142.039062 281.085938 L 140.816406 284.601562 L 138.375 291.636719 C 137.960938 292.808594 137.570312 293.984375 137.171875 295.160156 L 135.984375 298.6875 L 134.796875 302.21875 L 134.203125 303.980469 L 133.902344 304.859375 L 133.613281 305.746094 L 133.632812 305.753906 C 133.316406 306.707031 133 307.667969 132.679688 308.636719 C 131.910156 310.984375 131.167969 313.3125 130.457031 315.613281 C 130.28125 316.191406 130.105469 316.761719 129.933594 317.332031 C 129.765625 317.90625 129.597656 318.476562 129.429688 319.046875 C 129.101562 320.183594 128.777344 321.3125 128.460938 322.433594 C 128.207031 323.34375 127.957031 324.242188 127.710938 325.140625 L 120.863281 347.128906 C 120.710938 347.617188 121.34375 347.964844 121.671875 347.566406 C 125.375 343.058594 132.875 337.566406 134.988281 336.058594 C 135.238281 335.878906 135.207031 335.503906 134.933594 335.363281 C 133.089844 334.410156 131.679688 332.910156 130.613281 331.34375 C 141.632812 296.816406 152.1875 267.964844 161.988281 243.9375 C 162.636719 242.347656 163.277344 240.785156 163.917969 239.238281 C 187.757812 181.738281 206.917969 152.996094 217.039062 140.222656 C 218.097656 138.890625 219.054688 137.730469 219.90625 136.734375 C 223.148438 132.941406 224.90625 131.441406 224.90625 131.441406 C 223.34375 133.261719 221.796875 135.144531 220.261719 137.089844 C 219.335938 138.269531 218.40625 139.46875 217.488281 140.6875 C 197.539062 167.160156 179.898438 203.476562 165.4375 239.332031 C 164.800781 240.914062 164.167969 242.496094 163.542969 244.070312 C 158.582031 256.601562 154.011719 269.019531 149.875 280.882812 C 154.304688 278.269531 158.734375 275.085938 163.226562 271.433594 C 164.363281 270.5 165.5 269.535156 166.636719 268.539062 C 167.773438 267.542969 168.902344 266.515625 170.050781 265.460938 C 172.335938 263.355469 174.613281 261.128906 176.871094 258.785156 C 180.917969 254.621094 184.945312 250.101562 188.941406 245.285156 C 190.375 243.550781 191.808594 241.78125 193.234375 239.96875 C 196.75 235.511719 200.230469 230.824219 203.667969 225.949219 " fill-opacity="1" fill-rule="nonzero"/></g></svg>